{"title":"Fringe S05E01 HDTV x264-LOL [MyTV]","uid":7684422,"size":315297671,"categoryP":"video","categoryS":"tv_shows","magnet":"?xt=urn:btih:252493d16a79c0a201a52664001d11c858e65396&amp;dn=Fringe+S05E01+HDTV+x264-LOL+%5BMyTV%5D&amp;tr=udp%3A%2F%2Ftracker.openbittorrent.com%3A80&amp;tr=udp%3A%2F%2Fopen.demonii.com%3A1337&amp;tr=udp%3A%2F%2Ftracker.coppersurfer.tk%3A6969&amp;tr=udp%3A%2F%2Fexodus.desync.com%3A6969","seeders":0,"leechers":0,"uploader":"TorrentXXLS","files":1,"time":1348908875,"description":"Fringe S05E01 HDTV x264-LOL [MyTV]\n\nScreenshots:\n &lt;a href=&quot;\nhttp://imageshack.us/a/img197/254/vlcsnap2012092908h52m14.png&quot; rel=&quot;nofollow&quot; target=&quot;_NEW&quot;&gt;\nhttp://imageshack.us/a/img197/254/vlcsnap2012092908h52m14.png&lt;/a&gt; &lt;a href=&quot;\nhttp://imageshack.us/a/img12/2795/vlcsnap2012092908h52m02.png&quot; rel=&quot;nofollow&quot; target=&quot;_NEW&quot;&gt;\nhttp://imageshack.us/a/img12/2795/vlcsnap2012092908h52m02.png&lt;/a&gt; &lt;a href=&quot;\nhttp://imageshack.us/a/img856/9760/vlcsnap2012092908h51m58.png&quot; rel=&quot;nofollow&quot; target=&quot;_NEW&quot;&gt;\nhttp://imageshack.us/a/img856/9760/vlcsnap2012092908h51m58.png&lt;/a&gt;\n\nNFO:\n\nFormat : MPEG-4\nFormat profile : Base Media\nCodec ID : isom\nFile size : 301 MiB\nDuration : 42mn 47s\nOverall bit rate mode : Variable\nOverall bit rate : 983 Kbps\nEncoded date : UTC 2012-09-28 16:03:56\nTagged date : UTC 2012-09-28 16:03:56\n\nVideo\nID : 1\nFormat : AVC\nFormat/Info : Advanced Video Codec\nFormat profile : &lt;a class=&quot;__cf_email__&quot; href=&quot;/cdn-cgi/l/email-protection&quot; data-cfemail=&quot;2c64454b446c601f021d&quot;&gt;[email&amp;#160;protected]&lt;/a&gt;&lt;script cf-hash='f9e31' type=&quot;text/javascript&quot;&gt;\n/* &lt;![CDATA[ */!function(){try{var t=&quot;currentScript&quot;in document?document.currentScript:function(){for(var t=document.getElementsByTagName(&quot;script&quot;),e=t.length;e--;)if(t[e].getAttribute(&quot;cf-hash&quot;))return t[e]}();if(t&amp;&amp;t.previousSibling){var e,r,n,i,c=t.previousSibling,a=c.getAttribute(&quot;data-cfemail&quot;);if(a){for(e=&quot;&quot;,r=parseInt(a.substr(0,2),16),n=2;a.length-n;n+=2)i=parseInt(a.substr(n,2),16)^r,e+=String.fromCharCode(i);e=document.createTextNode(e),c.parentNode.replaceChild(e,c)}}}catch(u){}}();/* ]]&gt; */&lt;/script&gt;\nFormat settings, CABAC : Yes\nFormat settings, ReFrames : 5 frames\nCodec ID : avc1\nCodec ID/Info : Advanced Video Coding\nDuration : 42mn 47s\nBit rate : 855 Kbps\nMaximum bit rate : 3 068 Kbps\nWidth : 720 pixels\nHeight : 404 pixels\nDisplay aspect ratio : 16:9\nFrame rate mode : Constant\nFrame rate : 23.976 fps\nColor space : YUV\nChroma subsampling : 4:2:0\nBit depth : 8 bits\nScan type : Progressive\nBits/(Pixel*Frame) : 0.123\nStream size : 262 MiB (87%)\nWriting library : x264 core 128 r2216 198a7ea\nEncoding settings : cabac=1 / ref=5 / deblock=1:1:1 / analyse=0x3:0x133 / me=umh / subme=9 / psy=1 / psy_rd=1.00:0.00 / mixed_ref=1 / me_range=16 / chroma_me=1 / trellis=2 / 8x8dct=1 / cqm=0 / deadzone=21,11 / fast_pskip=1 / chroma_qp_offset=-2 / threads=18 / lookahead_threads=3 / sliced_threads=0 / nr=0 / decimate=1 / interlaced=0 / bluray_compat=0 / constrained_intra=0 / bframes=3 / b_pyramid=2 / b_adapt=2 / b_bias=0 / direct=3 / weightb=1 / open_gop=0 / weightp=2 / keyint=250 / keyint_min=23 / scenecut=40 / intra_refresh=0 / rc_lookahead=60 / rc=crf / mbtree=1 / crf=20.0 / qcomp=0.60 / qpmin=0 / qpmax=69 / qpstep=4 / ip_ratio=1.40 / aq=1:1.00\nEncoded date : UTC 2012-09-28 15:42:17\nTagged date : UTC 2012-09-28 16:03:57\nMatrix coefficients : BT.709\n\nAudio\nID : 2\nFormat : AAC\nFormat/Info : Advanced Audio Codec\nFormat profile : LC\nCodec ID : 40\nDuration : 42mn 47s\nBit rate mode : Variable\nBit rate : 124 Kbps\nMaximum bit rate : 150 Kbps\nChannel(s) : 2 channels\nChannel positions : Front: L R\nSampling rate : 48.0 KHz\nCompression mode : Lossy\nDelay relative to video : 83ms\nStream size : 37.9 MiB (13%)\nEncoded date : UTC 2012-09-28 16:03:56\nTagged date : UTC 2012-09-28 16:03:57","torrent":{"xt":"urn:btih:252493d16a79c0a201a52664001d11c858e65396","amp;dn":"Fringe+S05E01+HDTV+x264-LOL+%5BMyTV%5D","amp;tr":["udp%3A%2F%2Ftracker.openbittorrent.com%3A80","udp%3A%2F%2Fopen.demonii.com%3A1337","udp%3A%2F%2Ftracker.coppersurfer.tk%3A6969","udp%3A%2F%2Fexodus.desync.com%3A6969"],"infoHash":"252493d16a79c0a201a52664001d11c858e65396","infoHashBuffer":{"type":"Buffer","data":[37,36,147,209,106,121,192,162,1,165,38,100,0,29,17,200,88,230,83,150]},"announce":[],"urlList":[]}}